<svg xmlns="http://www.w3.org/2000/svg" xmlns:xlink="http://www.w3.org/1999/xlink" viewBox="0 0 98.32 27.4"><defs><style>.cls-1,.cls-2{fill:none;}.cls-2{clip-path:url(#clip-path);}.cls-3{clip-path:url(#clip-path-2);}</style><clipPath id="clip-path"><rect class="cls-1" y="0.16" width="100" height="27.76"/></clipPath><clipPath id="clip-path-2" transform="translate(-0.68)"><path class="cls-2" d="M4.94,19.13a.54.54,0,0,1,.61.61v6.63c0,.43-.2.65-.61.65a.69.69,0,0,1-.46-.17.64.64,0,0,1-.19-.48V19.74a.6.6,0,0,1,.19-.44.69.69,0,0,1,.46-.17Zm7.73,5.11a.55.55,0,0,1,.1.46.7.7,0,0,1-.25.41.6.6,0,0,1-.38.12.57.57,0,0,1-.5-.31L4.26,14a.56.56,0,0,1,.19-.88A.44.44,0,0,1,4.79,13a.76.76,0,0,1,.53.27l7.35,11ZM2.2,4.8V26.37c0,.43-.2.65-.61.65a.58.58,0,0,1-.65-.65V4.19a.69.69,0,0,1,.17-.46.62.62,0,0,1,.48-.19H9.17a11.8,11.8,0,0,1,2.53.25,5,5,0,0,1,2,.86A4,4,0,0,1,15,6.27a6.19,6.19,0,0,1,.45,2.53q0,5.37-6,5.37H8.22A.62.62,0,0,1,7.76,14a.6.6,0,0,1-.19-.45.55.55,0,0,1,.19-.44.64.64,0,0,1,.46-.17H9.4A6.09,6.09,0,0,0,12.88,12,3.66,3.66,0,0,0,14.16,8.8a4.8,4.8,0,0,0-.36-2,3,3,0,0,0-1-1.22A4.14,4.14,0,0,0,11.21,5a11.85,11.85,0,0,0-2-.17ZM11.49,17l6.17,9a.57.57,0,0,1-.15.88.6.6,0,0,1-.34.11.63.63,0,0,1-.54-.27l-6.78-10a.55.55,0,0,1,0-.65.6.6,0,0,1,.57-.34,8.38,8.38,0,0,0,2.93-.5,6.46,6.46,0,0,0,2.28-1.41,6.12,6.12,0,0,0,1.47-2.21,8,8,0,0,0,.51-2.94q0-3.66-1.82-5.28a7.87,7.87,0,0,0-5.37-1.62H5c-.41,0-.61-.21-.61-.64A.54.54,0,0,1,5,.57h5.41a9.07,9.07,0,0,1,6.24,2q2.21,2,2.21,6.19a8.05,8.05,0,0,1-2,5.66A8.54,8.54,0,0,1,11.49,17Zm2.06,8.69A.58.58,0,0,1,14,26a.79.79,0,0,1,0,.55h0a.59.59,0,0,1-.65.46.94.94,0,0,1-.57-.36.64.64,0,0,1-.08-.52v0a.66.66,0,0,1,.65-.46.47.47,0,0,1,.23,0ZM23.07,13.6A14.39,14.39,0,0,1,23.54,10a14.62,14.62,0,0,1,1.37-3.37A13.36,13.36,0,0,1,27.1,3.73,11.7,11.7,0,0,1,30,1.6a.43.43,0,0,1,.3-.08.58.58,0,0,1,.53.3.58.58,0,0,1,.06.52.63.63,0,0,1-.32.36,12.1,12.1,0,0,0-2.67,2,11.33,11.33,0,0,0-2,2.6,12.88,12.88,0,0,0-1.22,3.05,13,13,0,0,0,.4,7.81A12.51,12.51,0,0,0,27.43,22a11.3,11.3,0,0,0,3.5,2.69,10,10,0,0,0,4.48,1,9.83,9.83,0,0,0,4.45-1A11.28,11.28,0,0,0,43.35,22a12.92,12.92,0,0,0,2.28-3.87,12.82,12.82,0,0,0,.06-8.86,12.56,12.56,0,0,0-2.14-3.78,11.43,11.43,0,0,0-3.29-2.72A10,10,0,0,0,36,1.52V4.23a.54.54,0,0,1-.6.61,7.06,7.06,0,0,0-3.2.72A7.44,7.44,0,0,0,29.75,7.5a9.17,9.17,0,0,0-1.56,2.79,9.59,9.59,0,0,0-.55,3.24,9.49,9.49,0,0,0,.55,3.2,8.77,8.77,0,0,0,1.58,2.78,7.93,7.93,0,0,0,2.46,1.95,7,7,0,0,0,3.18.72,7.05,7.05,0,0,0,3.19-.72,8,8,0,0,0,2.48-1.93,8.57,8.57,0,0,0,1.58-2.76,9.67,9.67,0,0,0,.55-3.24A9.38,9.38,0,0,0,41.9,8.61a7.72,7.72,0,0,0-3.56-3.16A.54.54,0,0,1,38,5.12a.59.59,0,0,1,0-.47.53.53,0,0,1,.57-.39.59.59,0,0,1,.23,0,8.64,8.64,0,0,1,2.33,1.51,10.13,10.13,0,0,1,1.77,2.13,10.54,10.54,0,0,1,1.14,2.61,10.73,10.73,0,0,1,.4,3,10.48,10.48,0,0,1-.67,3.73A10.38,10.38,0,0,1,42,20.43a9,9,0,0,1-2.86,2.19,8.39,8.39,0,0,1-3.69.82,8,8,0,0,1-3.68-.84,9.54,9.54,0,0,1-2.86-2.21A10,10,0,0,1,27,17.22a10.78,10.78,0,0,1-.65-3.69A11.14,11.14,0,0,1,27,10a9.74,9.74,0,0,1,1.7-3.08,9.24,9.24,0,0,1,2.64-2.25,7.58,7.58,0,0,1,3.45-1V.87c0-.4.21-.61.65-.61a10.91,10.91,0,0,1,5,1.13,12.86,12.86,0,0,1,3.88,3,13.71,13.71,0,0,1,2.55,4.25,13.88,13.88,0,0,1,.92,5,14.12,14.12,0,0,1-.92,5,13.65,13.65,0,0,1-2.55,4.26,12.37,12.37,0,0,1-3.9,3,11.69,11.69,0,0,1-9.9,0,12.41,12.41,0,0,1-3.91-3A13.65,13.65,0,0,1,24,18.62a14.11,14.11,0,0,1-.91-5Zm8.6-12.5a.6.6,0,0,1,.65-.46.63.63,0,0,1,.23,0,.58.58,0,0,1,.38.34.78.78,0,0,1,0,.54.66.66,0,0,1-.65.49,1.07,1.07,0,0,1-.61-.4.54.54,0,0,1,0-.51v0Zm28.68,26a.59.59,0,0,1-.61-.42l-9-25.2a.63.63,0,0,1,0-.49.77.77,0,0,1,.34-.35.22.22,0,0,0,.12,0l.11,0a.57.57,0,0,1,.57.42l9,25.2a.62.62,0,0,1-.38.84l-.19,0Zm2.74-9.88a.71.71,0,0,1-.55-.32.59.59,0,0,1-.06-.48L67,3.24a.64.64,0,0,1,.61-.42.36.36,0,0,1,.19,0,.57.57,0,0,1,.38.31.64.64,0,0,1,0,.49L63.7,16.8a.64.64,0,0,1-.61.42Zm.15,9.88a.68.68,0,0,1-.61-.46L55.09,4.11a.57.57,0,0,1,.38-.8.53.53,0,0,1,.19,0,.55.55,0,0,1,.61.42l7,20.81L71.43,1.06A.55.55,0,0,1,72,.6l.12,0s.06,0,.11,0a.55.55,0,0,1,.34.33.6.6,0,0,1,0,.47l-8.8,25.2a.54.54,0,0,1-.57.46ZM68.38,1.94a.94.94,0,0,1-.57-.36A.72.72,0,0,1,67.74,1a.54.54,0,0,1,.34-.4,2.73,2.73,0,0,1,.53-.05A.64.64,0,0,1,69,.93a.69.69,0,0,1,0,.51v0a.66.66,0,0,1-.65.46Zm8.19,25.12q-.76-.22-.57-.84L85.37,1A.63.63,0,0,1,86,.6h.53a.64.64,0,0,1,.61.42l4.53,13.84a.66.66,0,0,1,0,.5.56.56,0,0,1-.38.3.14.14,0,0,0-.09,0l-.1,0a.64.64,0,0,1-.61-.46L86.2,2.36l-9,24.32a.65.65,0,0,1-.61.38Zm21.55,0a.65.65,0,0,1-.61-.38l-3-8.31H86a.62.62,0,0,1-.47-.19.64.64,0,0,1-.17-.46c0-.41.21-.61.64-.61h8.92a.62.62,0,0,1,.57.34l3.2,8.77a.56.56,0,0,1-.39.8l-.19,0ZM80.84,25c-.51-.15-.7-.43-.58-.84l5.3-15.63a.68.68,0,0,1,.61-.42l.11,0,.08,0a.61.61,0,0,1,.38.32.68.68,0,0,1,0,.48L81.44,24.62a.63.63,0,0,1-.6.42Zm13.21,0a.52.52,0,0,1-.57-.42l-1-2.86H85a.55.55,0,0,1-.44-.19.69.69,0,0,1-.17-.46.54.54,0,0,1,.61-.61h8a.63.63,0,0,1,.61.42l1.07,3.32a.58.58,0,0,1,0,.46.58.58,0,0,1-.38.3l-.19,0Zm-.11-9.34a.63.63,0,0,1-.61-.42L89.52,3.54a.56.56,0,0,1,.38-.8.36.36,0,0,1,.19,0,.6.6,0,0,1,.61.42l3.84,11.7a.66.66,0,0,1,0,.5.61.61,0,0,1-.38.3l-.19,0ZM80.15,27.13a.86.86,0,0,1-.57-.36.7.7,0,0,1-.08-.55.68.68,0,0,1,.65-.5l.11,0a.22.22,0,0,0,.12,0,.74.74,0,0,1,.38.36.72.72,0,0,1,0,.52v0a.67.67,0,0,1-.65.45Z"/></clipPath></defs><title>Asset 1</title><g id="Layer_2" data-name="Layer 2"><g id="Layer_1-2" data-name="Layer 1"><g class="cls-3"><rect width="98.32" height="27.4"/></g></g></g></svg>